<?xml version="1.0" encoding="UTF-8"?>
<svg width="41px" height="41px" viewBox="0 0 41 41" version="1.1" xmlns="http://www.w3.org/2000/svg" xmlns:xlink="http://www.w3.org/1999/xlink">
    <!-- Generator: Sketch 47.1 (45422) - http://www.bohemiancoding.com/sketch -->
    <title>Web</title>
    <desc>Created with Sketch.</desc>
    <defs></defs>
    <g id="Timeline" stroke="none" stroke-width="1" fill="none" fill-rule="evenodd">
        <g id="ProfilePopupFollowed" transform="translate(-663.000000, -448.000000)">
            <g id="Web" transform="translate(664.000000, 449.000000)">
                <circle id="Oval" stroke="#CCCCCC" stroke-width="1.25" cx="19.5" cy="19.5" r="19.5"></circle>
                <path d="M29.7884733,15.6917014 C29.5975056,15.1747991 29.3675046,14.6749497 29.1032692,14.1978948 C28.603077,13.294344 27.9802577,12.4680458 27.2552919,11.744451 C27.2375962,11.7267554 27.2229855,11.7118019 27.2052898,11.6941062 L27.2040901,11.6941062 C27.1835237,11.6737112 27.1639427,11.6540017 27.1421766,11.6339495 L27.140677,11.6329211 C27.0785922,11.5710077 27.014365,11.5094799 26.9497094,11.4519796 C24.9950867,9.6391366 22.373684,8.53125 19.4999143,8.53125 C17.8311218,8.53125 16.2473372,8.90495874 14.8308259,9.57251001 C14.733564,9.6183988 14.6366448,9.66565869 14.5414395,9.71433252 C13.5024075,10.2417323 12.5586237,10.929293 11.7443654,11.744451 C10.5535276,12.9339177 9.63570886,14.3988457 9.09112756,16.0338322 C9.06374854,16.1161406 9.03671228,16.1997773 9.01138989,16.2830713 L9.00813354,16.2922833 C8.99078064,16.3487124 8.97415613,16.4071981 8.95783154,16.4650411 C8.91738428,16.6034359 8.88045044,16.7418307 8.84677295,16.8829677 C8.83349048,16.9315986 8.82265027,16.9805724 8.81172437,17.0302317 C8.62816919,17.8238379 8.53125,18.6508217 8.53125,19.4999143 C8.53125,22.5260468 9.76017847,25.2726475 11.7443654,27.2554633 C12.8609498,28.3715336 14.2187611,29.2491621 15.7323201,29.8041123 C15.7794086,29.8214652 15.8275254,29.8388181 15.8762849,29.8547571 C16.1655,29.956775 16.4613563,30.046196 16.7614545,30.1234058 C16.8138131,30.1366882 16.8672001,30.1499279 16.9207584,30.1614965 C17.7482992,30.3624474 18.6126881,30.4685358 19.4998715,30.4685358 C22.5263038,30.4685358 25.2723904,29.2399501 27.255249,27.2554204 C27.619103,26.8925947 27.9562207,26.5045752 28.264674,26.0931185 C29.6475505,24.2582523 30.46875,21.9724248 30.46875,19.4999143 C30.46875,18.1618553 30.2281659,16.8784687 29.7884733,15.6917014 Z M12.5926439,26.4076989 C10.8240615,24.6371027 9.73159973,22.1992551 9.73159973,19.4999143 C9.73159973,19.0010504 9.76887634,18.5120413 9.84094446,18.0343008 C10.1736918,18.2669154 10.7806578,18.5923359 10.7883274,18.5940498 C10.811079,18.6012052 10.8372583,18.6049329 10.868922,18.6049329 C10.9180671,18.6049329 10.977067,18.5961064 11.0380807,18.5862517 C11.1025221,18.5767397 11.1681632,18.5672278 11.2203505,18.5672278 C11.236675,18.5672278 11.2521427,18.5679133 11.2643969,18.5702699 C11.2869771,18.5804674 11.3240823,18.6661608 11.3436204,18.7120924 C11.3841105,18.8045984 11.4255861,18.9004464 11.5109366,18.9423076 C11.5901602,18.9824121 11.7615469,19.0031927 12.0126713,19.0300148 C12.0958367,19.0392268 12.1808445,19.0494243 12.2245052,19.0565369 C12.2408298,19.0864438 12.2607107,19.1595831 12.2738218,19.2106135 C12.3120839,19.3541071 12.3500032,19.5006855 12.4593051,19.5659839 C12.5499686,19.6214275 12.8456107,19.9026302 13.0105704,20.0682327 C13.0323365,20.0893132 13.0596727,20.1001963 13.0880801,20.1001963 C13.1062899,20.1001963 13.1261708,20.0957831 13.1424954,20.0849 C13.1556064,20.0774019 13.443579,19.9087573 13.5440973,19.8458584 C13.5650065,19.8526282 13.6020688,19.8761082 13.6357463,19.9050297 C13.6410165,20.0631339 13.6610687,20.5861633 13.6620542,20.6919089 C13.6435444,20.75755 13.4240409,20.9856658 13.1819143,21.1903872 C13.157963,21.2104395 13.1433523,21.2386754 13.1424954,21.2689252 C13.141467,21.2988322 13.1152449,21.9894778 13.1424954,22.2669957 C13.1710312,22.5481985 13.63249,23.09775 13.7566168,23.240558 C13.8091469,23.383066 13.9522976,23.7622163 14.0069271,23.8434965 C14.0614709,23.9254193 14.6149215,24.3406465 14.9707632,24.6035109 L14.9707632,26.2398256 C14.9707632,26.4231237 15.04236,26.5427944 15.0994746,26.6400564 C15.1345232,26.6978566 15.161688,26.7434454 15.161688,26.784921 L15.161688,27.9308983 C15.161688,28.0798762 15.2050488,28.2019464 15.2652056,28.3052926 C14.2688917,27.8250242 13.367269,27.1809957 12.5926439,26.4076989 Z M27.9584916,15.461829 C27.767224,15.3258336 27.4672544,15.2710756 27.4672544,15.2710756 L27.2487792,15.2431824 C27.1397772,15.0251785 27.1943639,14.5341984 26.8125143,14.6429861 C26.4302791,14.7524594 25.1751713,14.9704204 24.9022808,15.0251785 C24.629733,15.0795937 24.3020845,15.5158586 24.083952,15.8433787 C23.8654768,16.170813 23.2653234,17.2079597 23.15615,17.3715483 C23.0471481,17.5350941 22.99239,18.5722837 22.99239,18.84466 C22.99239,19.1180647 24.1932968,20.264042 24.574975,20.3184144 C24.9570388,20.3728297 25.9936285,20.1001106 26.2667333,20.0456953 C26.5396238,19.9905945 26.7031696,20.3728297 26.9215162,20.3728297 C27.1398201,20.3728297 27.4127106,20.4819602 27.1943639,20.8101229 C26.9760601,21.1365718 26.9760601,21.3004603 27.1943639,21.518807 C27.4127106,21.7374536 27.8491469,22.5559537 27.5762563,23.2109081 C27.3033658,23.8654768 27.5220553,24.1926112 27.6856011,24.4656731 C27.7168792,24.5180317 27.7498711,24.5907854 27.7849197,24.6764788 C27.3916729,25.3035399 26.9290144,25.8843267 26.4073561,26.407656 C24.6368884,28.1755957 22.1990409,29.268186 19.4999143,29.268186 C18.5982488,29.268186 17.7265331,29.1453875 16.8980068,28.9182572 C16.9014346,28.904632 16.9046481,28.8893785 16.9070046,28.8736967 C16.9207584,28.7713788 16.8784688,28.6951974 16.8347651,28.6414677 C16.895993,28.6122034 16.9449668,28.5652863 16.9798011,28.5026873 C17.0325026,28.4067964 17.0411576,28.2891394 17.0325026,28.1962906 L17.0855468,28.197319 C17.2186714,28.197319 17.3717197,28.1850648 17.4895052,28.1010853 C17.6824867,27.9637189 17.6860858,27.6733041 17.6498375,27.4716676 C17.6639341,27.4777947 17.6783734,27.4845645 17.6914845,27.4886349 C17.7064808,27.494762 17.7229768,27.4961331 17.7396013,27.4961331 C17.9142444,27.4961331 18.1073972,27.1822383 18.1594131,26.9744747 C18.1792939,26.8982933 18.2522618,26.7296488 18.3235159,26.5653746 C18.490318,26.1780406 18.5906221,25.9345858 18.5712554,25.8135439 C18.5741261,25.7373625 18.8734102,25.4989636 19.1394452,25.4455767 C19.4550538,25.3826777 19.5673978,25.2667346 19.6864259,24.8787151 C19.8000125,24.5104479 19.8557988,23.897012 19.8263632,23.6347903 C19.8177081,23.548797 20.0038341,23.2869181 20.1286465,23.1135176 C20.3315255,22.8272161 20.4550953,22.6442607 20.4550953,22.5014099 C20.4550953,22.1715762 20.1776631,21.9491591 19.9691711,21.8101216 C19.7619218,21.6717268 19.3984105,21.6397632 19.1571409,21.6196681 C19.0896573,21.6138838 19.0306146,21.608785 19.0032356,21.6030436 C18.978256,21.597902 18.9345524,21.5503422 18.8996752,21.5135797 C18.8245221,21.4326423 18.7215187,21.3224835 18.5577587,21.3017457 C18.5392489,21.2993463 18.5198394,21.2986608 18.5013296,21.2986608 C18.3972979,21.2986608 18.3049204,21.3313099 18.2143425,21.3629308 C18.1335765,21.3921951 18.0570524,21.4200883 17.9809138,21.4200883 C17.9576052,21.4200883 17.9360105,21.4173889 17.9142444,21.4119045 C17.8737971,21.4034209 17.8582866,21.3921951 17.8552017,21.3921951 C17.8560586,21.3738567 17.8911072,21.312286 17.9771005,21.2551285 C18.0602659,21.1997278 18.1389752,21.0773148 18.0483545,20.7997969 C17.9839559,20.5998743 17.8647565,20.4107919 17.8171538,20.340052 C17.6457671,20.082672 17.3334148,20.082672 17.2308827,20.082672 C17.1370056,20.082672 17.045228,20.0918412 16.9511796,20.0999821 L16.9307845,20.1006676 C16.8357078,20.1006676 16.7801356,20.0170309 16.6719906,19.8402026 C16.6107627,19.7398557 16.5419509,19.6276403 16.44636,19.5120399 C16.2385964,19.2631007 15.9485673,19.2301088 15.6909302,19.2301088 C15.6569099,19.2301088 15.6242607,19.2301088 15.5924685,19.2314799 C15.5653037,19.2314799 15.5389102,19.2321654 15.5141019,19.2321654 C15.4792247,19.2321654 15.4474325,19.2314799 15.4199249,19.2277522 C15.3252338,19.2158408 15.1842682,19.1437727 15.05997,19.0798455 C14.9236318,19.0097911 14.794749,18.9431217 14.6855757,18.9278254 L14.658368,18.9258116 C14.5022776,18.9258116 14.3256207,19.1070531 14.073468,19.3818289 C14.0109119,19.4498265 13.9303173,19.5378765 13.887642,19.5749388 C13.8791583,19.5650841 13.868061,19.55253 13.8595774,19.5416041 C13.8136886,19.4831184 13.7513038,19.4062943 13.6409308,19.3688892 C13.617108,19.3610482 13.5929854,19.356635 13.5690341,19.356635 C13.4828265,19.356635 13.4185565,19.4062943 13.3625988,19.4490981 C13.3127681,19.4865033 13.2700928,19.518167 13.2185482,19.518167 C13.1882985,19.518167 13.1532499,19.5076267 13.1128026,19.4858606 C12.9623251,19.403595 13.0122843,19.0883291 13.0517461,18.8353195 C13.0704272,18.7190336 13.0879515,18.6095175 13.0879515,18.5173542 C13.0879515,18.3079197 12.9641675,18.2851252 12.9121516,18.2851252 C12.8618496,18.2851252 12.8127045,18.302521 12.7559326,18.3249298 C12.6916626,18.348067 12.6173236,18.3755746 12.539814,18.3755746 C12.5049368,18.3755746 12.4722876,18.3697903 12.4406667,18.3589501 C12.3784534,18.3385551 12.350903,18.3167889 12.3466611,18.3038492 C12.3313649,18.261988 12.4121309,18.1388895 12.4709165,18.0481403 C12.498167,18.0066218 12.5267029,17.9630896 12.5539105,17.9185719 C12.6676685,17.7291896 12.7266683,17.5894237 12.6662974,17.4836353 C12.6290208,17.419708 12.5606803,17.3863733 12.4622615,17.3863733 C12.4243422,17.3863733 12.3817097,17.3907865 12.3313649,17.4006412 C12.2942596,17.407411 12.2592539,17.4108387 12.2243767,17.4108387 C12.1775024,17.4108387 12.1414255,17.4043689 12.1098047,17.3989274 C12.0802405,17.3942142 12.057446,17.3897582 12.0375652,17.3897582 C11.8870876,17.3897582 11.8685779,17.5393359 11.8607369,17.6039916 C11.8326724,17.8311218 11.6962914,17.946765 11.4572498,17.946765 C11.4395541,17.946765 11.4225868,17.9457367 11.4038628,17.9447084 C11.1494821,17.9283838 11.0412085,17.7478279 11.0412085,17.3441693 C11.0412085,17.1687122 11.0687589,17.1224806 11.1503818,16.9847714 C11.1908291,16.9184447 11.2411311,16.8344652 11.3021876,16.7113667 C11.4373689,16.4416897 11.5444856,16.3913877 11.6808237,16.3284888 C11.7210996,16.309422 11.7627466,16.2900981 11.8054647,16.265547 C11.8381139,16.2458375 11.8653215,16.2373539 11.8848596,16.2373539 C11.899299,16.2373539 11.9142953,16.2431382 11.940646,16.2519646 C11.9768514,16.265547 12.0256538,16.2828999 12.0902666,16.2828999 C12.1087764,16.2828999 12.1283145,16.2822572 12.1500806,16.2791722 C12.350903,16.2448521 12.3934069,16.1271522 12.4306406,16.0234633 C12.4352681,16.0125802 12.4392957,16.0010116 12.4451228,15.9864009 C12.4558345,15.9901285 12.4667175,15.9928279 12.477772,15.9948845 C12.5662075,16.0203783 12.7136001,16.061554 12.951442,16.061554 C13.02998,16.061554 13.0867947,16.0625394 13.1282703,16.0649817 C13.0987061,16.2146023 13.0997344,16.5029604 13.3953765,16.8399496 C13.4926384,16.9501084 13.577989,17.0014387 13.6650535,17.0014387 C13.9447566,17.0014387 13.968408,16.5301252 13.968408,16.0057676 C13.968408,15.6888735 14.0885929,15.6021519 14.444306,15.3481139 L14.4674432,15.3311038 C14.6605961,15.1940801 14.7753823,15.031177 14.8863981,14.8737583 C15.0066259,14.7040854 15.1198268,14.5435389 15.3328605,14.4109285 C15.5327831,14.2847878 15.8447926,14.1463502 16.1460905,14.0109976 C16.494134,13.8562782 16.8224681,13.7097426 16.9766733,13.586644 C17.1535016,13.4445216 17.118453,13.2221045 17.0899171,13.0415486 C17.0528119,12.8095767 17.0637378,12.7616741 17.1565865,12.7340808 C17.3094635,12.6908914 17.4731807,12.6654404 17.6467526,12.6381899 C17.895349,12.5990709 18.1531146,12.5586237 18.4174786,12.4590051 C18.6919116,12.3566873 18.7554961,12.2101088 18.7609376,12.1043203 C18.7709637,11.9254783 18.6167157,11.7822847 18.4817487,11.7146298 C18.4227059,11.6850227 18.4159362,11.5401581 18.4116943,11.411618 C18.4052245,11.2473867 18.3987975,11.0783994 18.2926663,10.9736393 C18.2328094,10.9124542 18.1561567,10.8818188 18.0677212,10.8818188 C17.9521208,10.8818188 17.8277798,10.9328064 17.6837721,10.9936915 C17.5885668,11.0327677 17.4817928,11.0762999 17.3682491,11.1089491 C17.355995,11.1123768 17.3452833,11.1147334 17.3366283,11.1147334 C17.293953,11.1147334 17.263489,11.0259979 17.2255697,10.9015283 C17.1672554,10.7175447 17.0812192,10.4421262 16.7789359,10.4421262 C16.745087,10.4421262 16.7078533,10.4452112 16.6687343,10.4530093 C16.2834569,10.5301761 16.1928362,10.9433467 16.1275378,11.2452872 C16.1044006,11.353775 16.068538,11.5183491 16.0367457,11.5401152 C15.809744,11.5401152 15.7366476,11.6849799 15.6656078,11.8257312 C15.6207045,11.9155378 15.5697169,12.0168702 15.4702269,12.116146 C15.4091704,12.1773739 15.3668379,12.1940413 15.3546266,12.1954124 C15.3361168,12.1780594 15.307838,12.0451062 15.4266947,11.8077356 C15.4769967,11.7081171 15.53364,11.5629097 15.4637999,11.4442244 C15.3818342,11.3054868 15.1878673,11.2963176 14.9639077,11.2881768 C14.8744867,11.2837635 14.7816379,11.2803358 14.688832,11.2684673 C14.5118324,11.2463584 14.4652581,11.2014551 14.46303,11.1919431 C14.46303,11.1875299 14.4652581,11.1568945 14.5133749,11.0977661 C15.9725186,10.2302922 17.6770023,9.73147119 19.4998715,9.73147119 C21.7101603,9.73147119 23.7452062,10.464278 25.3823778,11.7010474 C25.356884,11.8034081 25.2741042,11.9523431 25.2023361,12.0778411 C25.093377,12.26928 25.1479636,12.3784534 25.1479636,12.3784534 C25.1479636,12.3784534 25.666537,12.2964877 25.7753676,12.2421152 C25.8137582,12.2230913 25.848464,12.1666194 25.8740006,12.0982789 C25.9295728,12.145196 25.983988,12.1924559 26.0372036,12.2421152 C25.9074639,12.3597294 25.7680836,12.4831707 25.7209523,12.5151343 C25.6393293,12.5692068 25.3664388,12.6514724 25.257137,12.7055449 C25.1479636,12.760303 25.5843999,12.951442 25.5843999,13.0330221 C25.5843999,13.1149878 25.5843999,13.4968802 25.4206827,13.5237023 C25.257137,13.5512527 24.4933521,13.5512527 24.4933521,13.5512527 C24.4933521,13.5512527 24.2474978,14.4242109 24.3020845,14.5061338 C24.3566711,14.5883994 24.711356,14.7795385 24.9297883,14.7523308 C25.1479636,14.7241377 25.6392865,14.4796117 25.6392865,14.4796117 L25.8572904,13.9885887 L26.2937267,13.5237023 C26.2937267,13.5237023 26.6212039,13.6600404 26.7305057,13.5512527 C26.8395077,13.4424221 27.0579401,13.3336344 27.0579401,13.3336344 C27.0579401,13.3336344 27.2762867,13.7423489 27.4126249,13.7971498 L27.4389756,13.8090612 L27.4396611,13.8107322 C27.5972941,14.0277078 27.7445153,14.2511104 27.8817532,14.4816683 L27.8831243,14.4833822 L27.8831243,14.4844105 L27.8851381,14.4892094 C27.8926362,14.5051912 27.9004772,14.5194591 27.9103319,14.5286711 C28.1339059,14.9074786 28.3338713,15.3012396 28.5060721,15.7089686 C28.3301865,15.6974857 28.1239226,15.579486 27.9584916,15.461829 Z" id="WebIcon" fill="#CCCCCC" fill-rule="nonzero"></path>
            </g>
        </g>
    </g>
</svg>