<?xml version="1.0" standalone="no"?>
<!DOCTYPE svg PUBLIC "-//W3C//DTD SVG 20010904//EN"
 "http://www.w3.org/TR/2001/REC-SVG-20010904/DTD/svg10.dtd">
<svg version="1.0" xmlns="http://www.w3.org/2000/svg"
 width="400.000000pt" height="400.000000pt" viewBox="0 0 400.000000 400.000000"
 preserveAspectRatio="xMidYMid meet">
<metadata>
Created by potrace 1.11, written by Peter Selinger 2001-2013
</metadata>
<g transform="translate(0.000000,400.000000) scale(0.100000,-0.100000)"
fill="#000000" stroke="none">
<path d="M1775 3990 c-27 -4 -70 -10 -95 -14 -109 -15 -286 -65 -455 -130
-106 -40 -299 -153 -431 -252 -126 -94 -282 -247 -367 -359 -4 -5 -21 -28 -38
-50 -55 -72 -141 -218 -196 -332 -45 -94 -116 -283 -128 -342 -2 -9 -10 -47
-19 -86 -33 -157 -43 -257 -43 -420 0 -197 14 -321 57 -492 104 -415 334 -780
663 -1056 167 -140 435 -290 635 -356 232 -77 373 -99 642 -99 187 0 233 3
355 23 71 12 200 44 261 66 32 11 67 22 77 24 28 6 110 43 227 103 569 289
968 845 1066 1482 19 124 18 481 -2 605 -66 421 -260 803 -558 1100 -131 130
-141 139 -270 232 -168 120 -390 227 -602 288 -97 28 -103 29 -259 55 -115 18
-418 24 -520 10z"/>
</g>
</svg>
