<?xml version="1.0" standalone="no"?>
<!DOCTYPE svg PUBLIC "-//W3C//DTD SVG 20010904//EN"
 "http://www.w3.org/TR/2001/REC-SVG-20010904/DTD/svg10.dtd">
<svg version="1.0" xmlns="http://www.w3.org/2000/svg"
 width="1667.000000pt" height="1667.000000pt" viewBox="0 0 1667.000000 1667.000000"
 preserveAspectRatio="xMidYMid meet">
<metadata>
Created by potrace 1.11, written by Peter Selinger 2001-2013
</metadata>
<g transform="translate(0.000000,1667.000000) scale(0.100000,-0.100000)"
fill="#000000" stroke="none">
<path d="M8277 16254 c-1 -1 -105 -4 -232 -8 -126 -3 -239 -8 -250 -10 -11 -2
-65 -7 -120 -10 -55 -4 -113 -9 -130 -11 -16 -3 -50 -7 -75 -9 -45 -5 -179
-22 -255 -31 -35 -5 -390 -65 -470 -81 -389 -73 -1053 -276 -1420 -433 -222
-95 -351 -155 -560 -261 -371 -188 -708 -391 -1025 -619 -135 -97 -258 -189
-270 -201 -3 -3 -48 -39 -100 -80 -52 -41 -100 -79 -106 -85 -6 -6 -35 -31
-64 -56 -29 -24 -62 -53 -74 -64 -12 -11 -53 -47 -91 -80 -202 -173 -725 -726
-874 -925 -14 -19 -51 -66 -82 -105 -120 -149 -361 -493 -444 -633 -6 -9 -24
-37 -40 -62 -106 -164 -458 -820 -440 -820 4 0 -3 -13 -15 -30 -12 -16 -19
-30 -16 -30 2 0 -15 -43 -40 -96 -40 -85 -109 -256 -180 -444 -35 -92 -129
-372 -153 -455 -10 -38 -34 -119 -51 -180 -17 -60 -47 -177 -66 -260 -19 -82
-36 -157 -38 -165 -7 -28 -35 -165 -41 -200 -3 -19 -17 -98 -30 -175 -13 -77
-27 -165 -30 -195 -4 -30 -8 -66 -10 -80 -2 -14 -6 -50 -10 -80 -3 -30 -8 -66
-10 -80 -5 -29 -9 -72 -30 -350 -19 -245 -19 -812 0 -1030 9 -109 14 -172 20
-250 3 -42 7 -84 9 -95 2 -11 7 -47 10 -80 4 -33 9 -67 11 -75 2 -8 6 -45 10
-81 6 -68 7 -73 30 -204 8 -44 17 -96 20 -115 12 -71 37 -198 60 -295 13 -55
26 -111 28 -125 8 -43 28 -121 59 -230 16 -58 32 -114 35 -125 57 -212 232
-709 317 -900 8 -16 26 -57 41 -90 15 -33 47 -104 72 -159 96 -215 318 -624
444 -821 32 -49 79 -124 105 -165 70 -111 276 -400 372 -520 46 -58 88 -112
95 -120 34 -44 92 -116 97 -120 9 -9 83 -93 135 -155 230 -271 693 -710 1020
-966 66 -51 122 -96 125 -99 31 -34 498 -351 685 -465 226 -136 602 -337 775
-413 60 -27 247 -110 285 -128 131 -60 584 -219 822 -289 255 -75 637 -162
873 -200 19 -3 60 -10 90 -15 70 -12 104 -17 160 -24 25 -3 54 -8 65 -10 11
-2 54 -7 95 -11 41 -3 82 -8 90 -10 8 -2 53 -7 100 -10 47 -4 103 -9 125 -10
311 -27 961 -27 1245 0 19 1 71 6 115 10 118 11 244 25 275 30 8 1 40 6 70 10
69 9 337 53 425 70 127 24 257 54 422 96 109 28 219 56 245 62 25 7 50 15 54
20 4 4 14 7 23 7 16 0 367 111 406 129 11 5 54 21 95 36 364 136 859 367 1133
529 43 25 80 46 83 46 2 0 28 16 58 35 30 19 57 35 60 35 3 0 24 13 48 29 24
15 75 48 113 73 140 90 220 142 230 150 6 5 71 53 146 106 75 53 152 109 170
124 19 15 81 64 139 110 58 46 119 95 135 109 17 15 55 48 85 74 109 93 137
119 254 228 202 189 353 345 545 562 219 246 527 657 722 963 85 131 259 430
259 442 0 5 3 10 8 12 12 5 206 394 289 583 199 447 353 899 457 1340 39 162
56 237 60 260 2 11 12 61 21 110 9 50 19 101 21 115 3 14 11 61 19 105 8 44
17 100 20 125 3 25 7 61 10 80 2 19 7 53 9 75 3 22 10 78 16 124 6 46 13 111
15 145 3 34 7 90 10 126 14 186 20 354 19 625 0 256 -9 542 -19 595 -1 8 -6
60 -10 115 -4 55 -8 106 -10 115 -1 8 -6 42 -9 75 -4 33 -9 71 -11 85 -2 14
-6 48 -10 75 -13 100 -16 121 -27 180 -6 33 -12 71 -14 85 -2 20 -13 78 -19
100 0 3 -4 28 -9 55 -15 101 -109 495 -163 680 -112 391 -267 807 -427 1150
-49 104 -194 394 -229 455 -169 301 -329 557 -488 780 -22 30 -58 82 -81 115
-22 33 -44 62 -48 65 -3 3 -29 35 -57 71 -106 140 -208 264 -312 382 -151 171
-209 233 -347 372 -171 172 -272 268 -373 355 -36 30 -69 60 -75 65 -135 121
-399 329 -601 471 -149 106 -202 141 -450 299 -87 55 -364 210 -520 290 -147
75 -275 136 -510 241 -278 124 -909 336 -1160 390 -11 2 -56 13 -100 23 -44
11 -91 22 -105 25 -14 2 -58 12 -97 20 -40 9 -85 18 -100 21 -16 3 -39 7 -53
10 -30 6 -123 22 -165 29 -103 17 -227 35 -270 41 -27 3 -61 8 -75 10 -72 10
-177 21 -303 30 -49 4 -101 8 -115 10 -40 5 -600 23 -605 19z"/>
</g>
</svg>
